<svg width="181" height="171" viewBox="0 0 181 171" fill="none" xmlns="http://www.w3.org/2000/svg">
<g clip-path="url(#clip0_257_982)">
<path d="M145.079 131.763C143.606 131.763 142.166 131.326 140.941 130.508C139.716 129.689 138.761 128.526 138.197 127.165C137.634 125.804 137.486 124.306 137.773 122.862C138.061 121.417 138.77 120.089 139.812 119.048C140.854 118.006 142.181 117.297 143.626 117.009C145.071 116.722 146.568 116.869 147.929 117.433C149.29 117.997 150.453 118.952 151.272 120.177C152.09 121.401 152.527 122.841 152.527 124.315C152.525 126.289 151.739 128.183 150.343 129.579C148.947 130.975 147.054 131.761 145.079 131.763Z" fill="#CCCCCC"/>
<path d="M148.517 124.028H145.366V120.447C145.366 120.371 145.335 120.298 145.282 120.244C145.228 120.19 145.155 120.16 145.079 120.16C145.003 120.16 144.93 120.19 144.877 120.244C144.823 120.298 144.793 120.371 144.793 120.447V124.028H141.641C141.565 124.028 141.493 124.058 141.439 124.112C141.385 124.165 141.355 124.238 141.355 124.314C141.355 124.39 141.385 124.463 141.439 124.517C141.493 124.57 141.565 124.601 141.641 124.601H144.793V128.182C144.793 128.258 144.823 128.33 144.877 128.384C144.93 128.438 145.003 128.468 145.079 128.468C145.155 128.468 145.228 128.438 145.282 128.384C145.335 128.33 145.366 128.258 145.366 128.182V124.601H148.517C148.593 124.601 148.666 124.57 148.719 124.517C148.773 124.463 148.803 124.39 148.803 124.314C148.803 124.238 148.773 124.165 148.719 124.112C148.666 124.058 148.593 124.028 148.517 124.028Z" fill="white"/>
<path d="M173.762 166.667L170.487 166.667L168.93 154.034L173.763 154.034L173.762 166.667Z" fill="#FFB8B8"/>
<path d="M168.148 165.731H174.464V169.708H164.171C164.171 169.185 164.274 168.668 164.474 168.186C164.674 167.703 164.967 167.265 165.336 166.896C165.705 166.526 166.144 166.233 166.626 166.033C167.109 165.834 167.626 165.731 168.148 165.731Z" fill="#012B1F"/>
<path d="M160.728 166.667L157.453 166.667L155.896 154.034L160.729 154.034L160.728 166.667Z" fill="#FFB8B8"/>
<path d="M155.113 165.731H161.43V169.708H151.137C151.137 169.185 151.239 168.668 151.439 168.186C151.639 167.703 151.932 167.265 152.301 166.896C152.671 166.526 153.109 166.233 153.592 166.033C154.074 165.834 154.591 165.731 155.113 165.731Z" fill="#012B1F"/>
<path d="M176.286 122.993C176.023 122.702 175.826 122.356 175.71 121.981C175.595 121.606 175.563 121.21 175.617 120.821C175.671 120.432 175.809 120.059 176.023 119.73C176.236 119.4 176.519 119.121 176.852 118.913L175.838 112.859L179.367 111.345L180.679 119.915C180.992 120.497 181.08 121.174 180.928 121.818C180.775 122.461 180.391 123.026 179.85 123.405C179.308 123.785 178.646 123.952 177.99 123.876C177.333 123.8 176.727 123.486 176.286 122.993Z" fill="#FFB8B8"/>
<path d="M148.659 120.132C148.967 119.889 149.218 119.58 149.394 119.229C149.57 118.878 149.667 118.493 149.678 118.1C149.689 117.708 149.614 117.318 149.457 116.957C149.301 116.597 149.068 116.275 148.774 116.015L150.775 110.211L147.545 108.135L144.835 116.371C144.43 116.893 144.231 117.546 144.275 118.206C144.32 118.866 144.604 119.486 145.076 119.95C145.547 120.414 146.172 120.688 146.833 120.722C147.493 120.755 148.143 120.546 148.659 120.132Z" fill="#FFB8B8"/>
<path d="M165.432 77.3787C169.318 77.3787 172.468 74.2285 172.468 70.3426C172.468 66.4566 169.318 63.3064 165.432 63.3064C161.546 63.3064 158.396 66.4566 158.396 70.3426C158.396 74.2285 161.546 77.3787 165.432 77.3787Z" fill="#FFB8B8"/>
<path d="M148.441 115.79C148.321 115.79 148.2 115.773 148.084 115.74L146.034 115.151C145.706 115.057 145.429 114.836 145.264 114.538C145.098 114.24 145.057 113.889 145.149 113.561L149.381 98.6176L155.283 84.129C155.87 82.6886 157.096 81.744 158.483 81.6638C159.117 81.6329 159.746 81.7863 160.294 82.1054C160.842 82.4246 161.285 82.8958 161.571 83.462C161.888 84.068 162.063 84.7387 162.08 85.4226C162.098 86.1065 161.959 86.7853 161.673 87.4069L154.965 102.078L149.632 114.993C149.535 115.229 149.369 115.43 149.158 115.572C148.946 115.714 148.696 115.79 148.441 115.79Z" fill="#146301"/>
<path d="M169.403 76.2431L165.493 76.3126C165.086 76.3206 164.683 76.2328 164.316 76.0563C163.949 75.8798 163.628 75.6195 163.38 75.2964C163.132 74.9734 162.964 74.5965 162.888 74.1963C162.812 73.7961 162.832 73.3837 162.945 72.9924C163.028 72.7097 163.091 72.4212 163.133 72.1293C163.177 71.811 163.185 71.4888 163.158 71.1686C163.134 70.848 163.001 70.5453 162.781 70.3101C162.562 70.075 162.269 69.9214 161.951 69.8745C161.633 69.8276 161.308 69.8902 161.03 70.052C160.752 70.2139 160.538 70.4653 160.421 70.7652C159.764 70.7745 158.364 70.5602 157.706 70.5696C156.31 66.9916 159.352 62.3096 162.626 60.551C165.964 58.7582 170.297 60.5821 171.576 64.3186C173.352 64.3506 174.794 66.1019 175.023 68.0733C175.252 70.0447 174.441 72.1033 173.2 73.6143C171.96 75.1252 170.331 76.2266 169.403 76.2431Z" fill="#012B1F"/>
<path d="M156.552 165.487C156.235 165.485 155.93 165.367 155.694 165.155C155.459 164.944 155.309 164.653 155.274 164.338L153.823 115.569L172.097 116.87L172.111 116.988C176.24 151.555 174.829 163.521 174.814 163.638C174.804 163.814 174.757 163.987 174.677 164.145C174.597 164.303 174.486 164.443 174.349 164.556C174.213 164.669 174.055 164.753 173.884 164.802C173.714 164.851 173.536 164.865 173.36 164.841L169.322 164.938C169.016 164.904 168.732 164.76 168.522 164.535C168.313 164.309 168.191 164.015 168.179 163.708L164.406 128.385C164.382 128.293 164.327 128.213 164.251 128.157C164.174 128.102 164.08 128.075 163.986 128.082C163.888 128.082 163.794 128.115 163.719 128.177C163.644 128.239 163.592 128.324 163.573 128.42L162.116 163.858C162.131 164.187 162.02 164.509 161.804 164.758C161.589 165.007 161.286 165.164 160.958 165.196L156.68 165.48C156.637 165.485 156.595 165.487 156.552 165.487Z" fill="#012B1F"/>
<path d="M164.134 121.397C164.025 121.397 163.916 121.395 163.806 121.392C158.552 121.234 154.441 117.258 153.306 116.044C153.162 115.889 153.058 115.701 153.004 115.496C152.95 115.291 152.947 115.076 152.997 114.87L156.028 102.046L155.224 90.8971C155.097 89.3498 155.3 87.7933 155.819 86.3301C156.338 84.8668 157.16 83.5301 158.233 82.4078C159.127 81.4635 160.213 80.7225 161.419 80.2348C162.624 79.7472 163.92 79.5244 165.219 79.5815C170.334 79.8256 174.37 84.3977 174.406 89.99C174.463 98.6516 174.208 99.2467 174.124 99.4422C171.571 105.4 172.966 113.763 173.454 116.184C173.497 116.4 173.485 116.624 173.418 116.834C173.351 117.044 173.231 117.233 173.071 117.384C170.263 120.048 167.258 121.397 164.134 121.397Z" fill="#146301"/>
<path d="M177.331 118.137C177.039 118.137 176.756 118.038 176.529 117.856C176.301 117.674 176.141 117.42 176.076 117.136L172.949 103.512L168.757 87.9399C168.578 87.2796 168.553 86.587 168.684 85.9155C168.814 85.2439 169.097 84.6112 169.51 84.066C169.885 83.555 170.401 83.1638 170.994 82.9395C171.587 82.7153 172.233 82.6678 172.852 82.8026C174.207 83.1109 175.26 84.245 175.601 85.7626L179.026 101.011L180.734 116.464C180.771 116.803 180.672 117.143 180.459 117.409C180.247 117.676 179.937 117.847 179.599 117.887L177.479 118.129C177.43 118.134 177.38 118.137 177.331 118.137Z" fill="#146301"/>
<path d="M8.92726 119.606C9.29835 119.352 9.60915 119.019 9.83777 118.632C10.0664 118.244 10.2073 117.811 10.2505 117.364C10.2937 116.916 10.2382 116.464 10.0878 116.04C9.93752 115.616 9.69605 115.23 9.38043 114.909L10.5742 88.2615L4.49646 88.9437L4.84956 115.009C4.34604 115.575 4.06761 116.306 4.06702 117.063C4.06642 117.821 4.34371 118.552 4.84634 119.119C5.34897 119.685 6.04202 120.048 6.79416 120.138C7.5463 120.228 8.30527 120.039 8.92726 119.606Z" fill="#FFB8B8"/>
<path d="M20.0146 164.714L23.4739 165.323L26.8927 152.27L22.3603 151.372L20.0146 164.714Z" fill="#FFB8B8"/>
<path d="M29.5803 169.708L18.7088 167.797L19.4473 163.596L26.1184 164.769C26.67 164.866 27.1971 165.071 27.6696 165.372C28.1421 165.672 28.5507 166.063 28.8722 166.522C29.1937 166.98 29.4217 167.498 29.5432 168.044C29.6647 168.591 29.6773 169.156 29.5803 169.708Z" fill="#012B1F"/>
<path d="M10.5202 166.446H14.0324L15.7032 152.899L10.5197 152.899L10.5202 166.446Z" fill="#FFB8B8"/>
<path d="M20.8059 169.707L9.76771 169.708L9.76752 165.443L16.541 165.443C17.672 165.443 18.7568 165.892 19.5567 166.692C20.3565 167.491 20.8059 168.576 20.8059 169.707Z" fill="#012B1F"/>
<path d="M25.4607 162.737C25.4059 162.738 25.3512 162.734 25.2967 162.728L21.1629 162.388C20.9747 162.365 20.7929 162.305 20.6287 162.211C20.4644 162.116 20.3211 161.989 20.2074 161.838C20.0938 161.686 20.0121 161.513 19.9674 161.329C19.9227 161.144 19.916 160.953 19.9475 160.766L23.7647 139.372L21.1854 125.771C21.1644 125.661 21.1041 125.562 21.0157 125.492C20.9273 125.423 20.8167 125.387 20.7044 125.393C20.592 125.399 20.4855 125.445 20.4044 125.523C20.3234 125.601 20.2732 125.705 20.2632 125.817L17.0387 162.093C17.0033 162.457 16.8279 162.793 16.5494 163.031C16.271 163.268 15.9113 163.388 15.5463 163.365L11.6517 163.22C11.3104 163.195 10.9898 163.047 10.7503 162.803C10.5109 162.558 10.3693 162.235 10.3521 161.893L10.0903 118.415L30.2815 115.891L31.692 137.675L31.6864 137.698L26.819 161.669C26.7448 161.973 26.5707 162.244 26.3244 162.438C26.0782 162.632 25.7741 162.737 25.4607 162.737Z" fill="#012B1F"/>
<path d="M16.7474 70.994C20.6333 70.994 23.7835 67.8438 23.7835 63.9578C23.7835 60.0718 20.6333 56.9216 16.7474 56.9216C12.8614 56.9216 9.71118 60.0718 9.71118 63.9578C9.71118 67.8438 12.8614 70.994 16.7474 70.994Z" fill="#FFB8B8"/>
<path d="M23.3771 121.592C22.2767 121.599 21.1974 121.29 20.2669 120.702C16.8586 118.572 12.9873 119.419 10.9831 120.113C10.7842 120.183 10.5721 120.206 10.3627 120.183C10.1534 120.159 9.95209 120.088 9.77397 119.975C9.59789 119.865 9.44909 119.716 9.33874 119.54C9.22838 119.363 9.15933 119.164 9.13673 118.958L5.49202 86.4066C4.88125 80.9527 8.16653 75.825 13.3036 74.2142C13.4966 74.1536 13.6928 74.0962 13.8924 74.042C15.491 73.6085 17.1651 73.5307 18.7971 73.8139C20.429 74.0972 21.979 74.7346 23.3381 75.6814C24.7224 76.6385 25.8802 77.8875 26.7298 79.3403C27.5795 80.7931 28.1004 82.4145 28.256 84.0904L31.3243 116.86C31.3452 117.072 31.3165 117.286 31.2406 117.485C31.1647 117.684 31.0436 117.863 30.8868 118.008C29.8112 119.003 26.6894 121.592 23.3771 121.592Z" fill="#F7941D"/>
<path d="M12.2788 93.3867L4.05593 92.4826C3.82197 92.4569 3.5963 92.381 3.39429 92.2602C3.19229 92.1394 3.0187 91.9765 2.88533 91.7826C2.75197 91.5886 2.66198 91.3682 2.62148 91.1363C2.58098 90.9045 2.59092 90.6666 2.65064 90.4389L4.74365 82.4616C4.88206 81.2653 5.48918 80.1727 6.43192 79.4234C7.37466 78.6741 8.57607 78.3292 9.77273 78.4643C10.9694 78.5994 12.0636 79.2036 12.8155 80.1442C13.5675 81.0849 13.9157 82.2854 13.7838 83.4824L14.0945 91.6972C14.1034 91.9324 14.0614 92.1668 13.9715 92.3843C13.8816 92.6018 13.7458 92.7974 13.5735 92.9577C13.4012 93.1181 13.1963 93.2394 12.9729 93.3134C12.7495 93.3874 12.5127 93.4125 12.2788 93.3867Z" fill="#F7941D"/>
<path d="M31.2915 118.465C31.6292 118.168 31.8976 117.8 32.0779 117.388C32.2581 116.976 32.3458 116.529 32.3347 116.079C32.3237 115.63 32.2141 115.188 32.0138 114.785C31.8134 114.382 31.5272 114.028 31.1753 113.748L29.149 87.1504L23.1936 88.491L26.6894 114.393C26.2578 115.015 26.0695 115.774 26.1602 116.526C26.2509 117.278 26.6143 117.971 27.1815 118.473C27.7488 118.975 28.4805 119.252 29.238 119.25C29.9955 119.249 30.7261 118.969 31.2915 118.465Z" fill="#FFB8B8"/>
<path d="M20.9103 91.7145C20.7379 91.5543 20.6021 91.3587 20.5122 91.1412C20.4223 90.9236 20.3804 90.6893 20.3894 90.4541L20.7001 82.2392C20.5682 81.0422 20.9164 79.8418 21.6684 78.9011C22.4203 77.9604 23.5145 77.3562 24.7112 77.2211C25.9078 77.086 27.1092 77.4309 28.052 78.1802C28.9947 78.9296 29.6018 80.0222 29.7402 81.2184L31.8333 89.1958C31.893 89.4235 31.9029 89.6613 31.8624 89.8932C31.8219 90.1251 31.7319 90.3455 31.5986 90.5394C31.4652 90.7334 31.2916 90.8963 31.0896 91.0171C30.8876 91.1379 30.6619 91.2138 30.428 91.2395L22.2051 92.1436C21.9711 92.1694 21.7343 92.1445 21.5109 92.0704C21.2874 91.9964 21.0826 91.875 20.9103 91.7145Z" fill="#F7941D"/>
<path d="M16.3288 71.2591C16.2037 71.2589 16.0791 71.2444 15.9573 71.2157L15.9216 71.207C9.73531 70.2606 8.36819 66.6774 8.06807 65.1809C7.75746 63.6316 8.11115 62.1361 8.91036 61.5553C8.47463 60.1795 8.54457 58.9596 9.11871 57.9279C10.1201 56.1288 12.2932 55.5204 12.5846 55.446C14.3201 54.1657 16.3966 55.0204 16.7744 55.1937C20.1315 53.9517 21.4146 54.9855 21.6466 55.2163C23.1473 55.4859 24.062 56.0656 24.3656 56.9397C24.936 58.5815 23.1322 60.6237 23.0552 60.7099L23.0152 60.7545L20.328 60.8825C20.073 60.8947 19.8234 60.9603 19.5954 61.0751C19.3674 61.19 19.1661 61.3514 19.0046 61.5491C18.843 61.7467 18.7248 61.9761 18.6576 62.2224C18.5904 62.4687 18.5757 62.7263 18.6145 62.9786C18.6873 63.3042 18.7791 63.6252 18.8897 63.9399C19.3486 65.3741 19.6924 66.5993 19.249 67.0651C19.1485 67.1553 19.0246 67.2153 18.8916 67.2384C18.7586 67.2614 18.6218 67.2466 18.4969 67.1955C18.0767 67.0833 17.7915 67.1068 17.6493 67.2656C17.4287 67.5118 17.496 68.1349 17.839 69.0204C17.9466 69.3004 17.9756 69.6044 17.9228 69.8997C17.87 70.195 17.7374 70.4702 17.5394 70.6955C17.3903 70.8713 17.2049 71.0127 16.9959 71.11C16.7869 71.2073 16.5593 71.2582 16.3288 71.2591Z" fill="#012B1F"/>
<path d="M40.4879 170.15H0.381203C0.305225 170.15 0.232354 170.12 0.178629 170.066C0.124904 170.013 0.0947266 169.94 0.0947266 169.864C0.0947266 169.788 0.124904 169.715 0.178629 169.661C0.232354 169.608 0.305225 169.577 0.381203 169.577H40.4879C40.5638 169.577 40.6367 169.608 40.6904 169.661C40.7442 169.715 40.7743 169.788 40.7743 169.864C40.7743 169.94 40.7442 170.013 40.6904 170.066C40.6367 170.12 40.5638 170.15 40.4879 170.15Z" fill="#CCCCCC"/>
<path d="M180.289 170.15H140.182C140.106 170.15 140.033 170.12 139.979 170.066C139.926 170.013 139.895 169.94 139.895 169.864C139.895 169.788 139.926 169.715 139.979 169.661C140.033 169.608 140.106 169.577 140.182 169.577H180.289C180.365 169.577 180.437 169.608 180.491 169.661C180.545 169.715 180.575 169.788 180.575 169.864C180.575 169.94 180.545 170.013 180.491 170.066C180.437 170.12 180.365 170.15 180.289 170.15Z" fill="#CCCCCC"/>
<path d="M122.911 121.467H53.5836C50.9252 121.464 48.3767 120.406 46.497 118.527C44.6172 116.647 43.5599 114.098 43.5569 111.44V10.0267C43.5599 7.3684 44.6172 4.81982 46.497 2.94009C48.3767 1.06037 50.9252 0.003017 53.5836 0H122.911C125.569 0.003017 128.118 1.06037 129.997 2.94009C131.877 4.81982 132.934 7.3684 132.937 10.0267V111.44C132.934 114.098 131.877 116.647 129.997 118.527C128.118 120.406 125.569 121.464 122.911 121.467Z" fill="white"/>
<path d="M112.025 80.5089H64.4699C59.6121 80.4856 59.5919 73.0859 64.4701 73.0606L112.025 73.0605C116.879 73.0833 116.906 80.4835 112.025 80.5089Z" fill="#CCCCCC"/>
<path d="M112.025 20.9045H64.4699C59.6121 20.8811 59.5919 13.4814 64.4701 13.4561L112.025 13.4561C116.879 13.4788 116.906 20.879 112.025 20.9045Z" fill="#CCCCCC"/>
<path d="M112.025 94.2597H64.4699C59.6121 94.2363 59.5919 86.8366 64.4701 86.8113L112.025 86.8113C116.879 86.834 116.906 94.2343 112.025 94.2597Z" fill="#CCCCCC"/>
<path d="M112.025 108.011H64.4699C59.6121 107.987 59.5919 100.588 64.4701 100.562L112.025 100.562C116.879 100.585 116.906 107.985 112.025 108.011Z" fill="#CCCCCC"/>
<path d="M111.166 64.122H65.3292C64.076 64.1206 62.8745 63.6221 61.9883 62.736C61.1022 61.8498 60.6037 60.6484 60.6023 59.3951V33.7269C60.6037 32.4737 61.1022 31.2722 61.9883 30.386C62.8745 29.4999 64.076 29.0014 65.3292 29H111.166C112.419 29.0014 113.62 29.4999 114.506 30.386C115.393 31.2722 115.891 32.4737 115.892 33.7269V59.3951C115.891 60.6484 115.393 61.8498 114.506 62.736C113.62 63.6221 112.419 64.1206 111.166 64.122Z" fill="#F7941D"/>
<path d="M122.911 121.467H53.5836C50.9252 121.464 48.3767 120.406 46.497 118.527C44.6172 116.647 43.5599 114.098 43.5569 111.44V10.0267C43.5599 7.3684 44.6172 4.81982 46.497 2.94009C48.3767 1.06037 50.9252 0.003017 53.5836 0H122.911C125.569 0.003017 128.118 1.06037 129.997 2.94009C131.877 4.81982 132.934 7.3684 132.937 10.0267V111.44C132.934 114.098 131.877 116.647 129.997 118.527C128.118 120.406 125.569 121.464 122.911 121.467ZM53.5836 1.71887C51.3809 1.72136 49.2693 2.59745 47.7118 4.15494C46.1543 5.71242 45.2782 7.82411 45.2757 10.0267V111.44C45.2782 113.643 46.1543 115.754 47.7118 117.312C49.2693 118.869 51.3809 119.745 53.5836 119.748H122.911C125.113 119.745 127.225 118.869 128.783 117.312C130.34 115.754 131.216 113.643 131.219 111.44V10.0267C131.216 7.82411 130.34 5.71242 128.783 4.15493C127.225 2.59744 125.113 1.72135 122.911 1.71887H53.5836Z" fill="#E6E6E6"/>
</g>
<defs>
<clipPath id="clip0_257_982">
<rect width="180.905" height="170.151" fill="white" transform="translate(0.0947266)"/>
</clipPath>
</defs>
</svg>
